<?xml version="1.0" standalone="no"?>
<!DOCTYPE svg PUBLIC "-//W3C//DTD SVG 20010904//EN"
 "http://www.w3.org/TR/2001/REC-SVG-20010904/DTD/svg10.dtd">
<svg version="1.0" xmlns="http://www.w3.org/2000/svg"
 width="840.000000pt" height="592.000000pt" viewBox="0 0 840.000000 592.000000"
 preserveAspectRatio="xMidYMid meet">
<metadata>
Created by potrace 1.16, written by Peter Selinger 2001-2019
</metadata>
<g transform="translate(0.000000,592.000000) scale(0.100000,-0.100000)"
fill="#000000" stroke="none">
<path d="M5130 5229 c-240 -20 -450 -160 -564 -379 -42 -80 -64 -154 -75 -254
-5 -43 -11 -79 -12 -81 -2 -2 -44 7 -93 20 -179 48 -284 60 -531 59 -309 -1
-356 -10 -820 -162 -386 -126 -418 -141 -470 -212 -36 -48 -59 -133 -52 -189
6 -51 143 -428 179 -493 47 -85 170 -147 267 -134 25 3 176 49 336 101 159 51
291 92 293 91 1 -2 -129 -223 -290 -492 l-293 -489 -470 -201 c-516 -221 -538
-233 -582 -331 -31 -67 -33 -162 -5 -226 27 -62 319 -495 355 -529 52 -47 114
-71 187 -71 61 0 107 16 670 227 333 125 620 239 638 252 17 14 67 67 110 119
42 51 79 94 82 94 6 1 170 -183 183 -206 4 -7 -19 -174 -53 -378 -33 -200 -60
-381 -60 -402 0 -114 83 -227 192 -262 47 -15 459 -23 631 -12 109 7 131 12
171 35 56 32 101 87 120 144 9 24 50 282 91 574 91 634 93 584 -26 748 -43 61
-79 112 -79 114 0 2 23 -9 51 -22 31 -16 75 -28 109 -30 52 -4 96 9 529 153
514 171 529 178 586 269 24 40 30 62 33 122 4 69 0 85 -83 333 -97 293 -118
328 -216 370 -108 47 -135 43 -401 -52 l-126 -46 -61 123 c-34 67 -88 163
-121 214 -63 98 -69 112 -46 112 8 0 56 21 107 47 133 66 237 171 302 303 61
123 79 200 80 325 0 267 -144 504 -383 629 -121 63 -244 87 -390 75z m189
-298 c121 -38 205 -111 264 -231 30 -61 32 -72 32 -175 0 -103 -2 -114 -32
-178 -42 -89 -121 -168 -210 -210 -64 -30 -75 -32 -178 -32 -103 0 -114 2
-178 32 -193 91 -290 308 -228 511 68 224 308 352 530 283z m-1278 -621 c523
-53 921 -305 1202 -760 61 -100 158 -303 197 -417 l32 -92 142 50 c77 28 205
73 284 101 81 28 147 47 151 42 15 -17 141 -408 133 -415 -9 -8 -823 -279
-838 -279 -6 0 -105 157 -220 350 -115 192 -212 348 -215 347 -9 -3 -409 -469
-415 -484 -3 -6 122 -186 277 -400 l283 -388 -68 -480 c-37 -264 -70 -488 -72
-497 -5 -17 -27 -18 -290 -18 -267 0 -285 1 -280 18 2 9 35 199 71 421 55 329
65 409 55 424 -28 46 -484 557 -490 550 -4 -5 -84 -100 -178 -213 l-170 -206
-559 -209 c-307 -114 -563 -210 -569 -212 -11 -4 -300 415 -292 422 2 2 226
98 498 215 l495 212 415 696 c228 383 415 703 415 712 0 20 -168 77 -273 91
-116 17 -178 4 -522 -106 -166 -53 -305 -93 -309 -89 -12 14 -134 354 -129
359 2 2 155 54 339 114 320 104 426 130 584 144 89 8 219 6 316 -3z"/>
</g>
</svg>
